<?xml version="1.0" encoding="UTF-8"?>
<svg id="_레이어_1" data-name="레이어 1" xmlns="http://www.w3.org/2000/svg" viewBox="0 0 207.09 43.57">
  <defs>
    <style>
      .cls-1, .cls-2, .cls-3 {
        stroke-width: 0px;
      }

      .cls-2 {
        fill: none;
      }

      .cls-3 {
        fill: #ff521c;
      }
    </style>
  </defs>
  <path class="cls-3" d="M170.41,25.07h0c-.17-.22-.13-.53.09-.71L200.96.11c.22-.18.54-.14.72.09l.65.84c.17.22.13.55-.1.72l-31.11,23.41c-.22.17-.54.12-.71-.09Z"/>
  <path class="cls-1" d="M188.46,12.59c-3.26,0-7.03-.36-9.01-.07-3.44.51-4.94,1.29-5.63,1.93.01-.28.02-.31.02-.77,0-1.57-1.27-1.59-2.84-1.59h-5.44c-1.28,0-1.82.17-1.82,1.65,0,.79,0,1.15.05,1.39.11.43.33.36.39.99.47,4.88.15,12.25.15,20.03,0,.96-.38,1.92-.37,2.73.03,2,0,2.59,0,3.39,0,.5.58.89,1.08.89l7.58.1c.18,0,.62-.45.72-.64h9.92c4.09,0,7.09-3,7.09-7.09V14.34c0-1.03-.88-1.84-1.9-1.75ZM180.16,28.77c-.64,2.79-1.48,5.33-2.54,7.62-.35.77-1.32,1.02-2,.52-.49-.37-.66-1.02-.42-1.59.93-2.16,1.75-4.57,2.45-7.21.71-2.65,1.17-5.32,1.39-8.02.05-.67.61-1.17,1.28-1.14.68.04,1.22.62,1.16,1.31-.21,2.73-.65,5.57-1.33,8.52Z"/>
  <path class="cls-3" d="M172.66,26.62h0c-.14-.24-.07-.55.16-.69l32.93-20.78c.24-.15.56-.08.7.16l.55.91c.15.24.07.56-.17.7l-33.49,19.87c-.24.14-.55.07-.69-.17Z"/>
  <g>
    <path class="cls-1" d="M69.79,30.51c-.59.22-9.1,2.95-16,2.41-.52-.04-.93-.1-1.25-.3-.31-.2-.46-.53-.46-1v-15.29c.02-.4.23-.14.23-2.36,0-1.57-1.27-1.59-2.84-1.59h-6.27c-1.28,0-1.82.17-1.82,1.65,0,.79,0,1.15.05,1.39.11.43.33.36.39.99h0v18.17c0,5.43.32,7.53,4.37,7.75,6.54.36,16.77.22,23.79-6.81l-.19-5.02Z"/>
    <path class="cls-1" d="M68.95,42.38c.92-8.83.35-22.56-.06-26.87-.06-.63-.28-.56-.39-.99-.06-.24-.05-.59-.05-1.39,0-1.48.53-1.65,1.82-1.65h6.27c1.57,0,2.84.02,2.84,1.59,0,2.26-.22,1.95-.23,2.38-.16,5.62-.26,18.23-.02,26.38.02.79-.6,1.44-1.39,1.44h-7.89c-.5,0-.94-.4-.89-.89Z"/>
  </g>
  <g>
    <path class="cls-1" d="M150.58,42.38c.92-8.83.57-22.56.17-26.87-.06-.63-.28-.56-.39-.99-.06-.24-.05-.59-.05-1.39,0-1.48.53-1.65,1.82-1.65h6.27c1.57,0,2.84.02,2.84,1.59,0,2.26-.22,1.95-.23,2.38-.16,5.62-.49,18.23-.25,26.38.02.79-.6,1.44-1.39,1.44h-7.89c-.5,0-.94-.4-.89-.89Z"/>
    <path class="cls-1" d="M130.95,42.58l-4.32.03-.74.66h-1.45c-.39,0-.71-.32-.71-.71v-7.5c0-.36.29-.65.65-.65h1.1c.2,0,.38.09.5.24l.54.67s11.49,1.06,12.09-4.22c.04-.36-.24-.65-.53-.43-2.86,2.17-7.95,2.36-11.4,1.51-.14-.03-.72.45-.72.45-1.07-.16-1.87-.06-2.42-.46-.32-.23-.47-.63-.47-1.03v-6c0-.43.42-.73.83-.58,1.96.73,6.78,2.03,14.44-1.49.37-.17.61-.55.61-.96h0c0-.72-.71-1.23-1.39-.99-3.08,1.08-10,3.33-15.08.58v-9.08c0-.32.26-.58.58-.58h3.92c.22,0,.44.07.69.24l.54.38c.17.12.37.19.58.19,4.86.16,10.45,0,18.56-.47.85,0,1.53.69,1.53,1.53,0,0-.14,6.14-.14,14.6,0,11.36-5.18,13.59-16.85,14.02l-.95.03Z"/>
  </g>
  <g>
    <path class="cls-1" d="M29.32,42.68c.92-8.83.35-21.77-.06-26.09-.06-.63-.28-.56-.39-.99-.06-.24-.05-1.38-.05-2.17,0-1.48.53-1.65,1.82-1.65h6.27c1.57,0,2.84.02,2.84,1.59,0,2.26-.22,1.95-.23,2.38-.16,5.62-.26,18.23-.02,26.38.02.79-.6,1.44-1.39,1.44h-7.89c-.5,0-.94-.4-.89-.89Z"/>
    <path class="cls-1" d="M14.07,12.46c-8.11.46-2.89.62-7.75.47-.21,0-.41-.07-.58-.19l-.54-.38c-.25-.17-.47-.24-.69-.24H.58c-.32,0-.58.26-.58.58v9.08s.04,0,.05,0c.12.68.49.98,1.59.98,2.91,0,1.4-.35,2.38-.44,0,0,1.01-.59,3.7-.54.12,0,.09.27.09.42,0,2.09-.33,8.98-.33,8.98-.61,5.28-4.18,4.22-4.18,4.22l-.54-.67c-.12-.15-.31-.24-.5-.24h-1.1c-.36,0-.65.29-.65.65v7.5c0,.39.32.71.71.71h1.45l.74-.66-.12-.03.95-.03c6.82,0,11.22-2.66,11.22-14.02,0-8.46.14-14.6.14-14.6,0-.85-.69-1.53-1.53-1.53Z"/>
    <path class="cls-1" d="M16.47,21.16c0,.41.35.73.76.7.73-.06.88-.17,1.61-.25,0,0,.01.43.01.59,0,2.09-.13,8.98-.13,8.98-.11,3.6-1.34,3.33-2.06,3.35-.27.01-.47.25-.49.52-.23,3.21-2.31,6.03-4.26,7.58,0,.39.32.71.71.71h1.72l.74-.66.83-.06c6.82,0,11.57-2.66,11.57-14.02,0-8.46.14-14.6.14-14.6,0-.85-.69-1.53-1.53-1.53-3.86.21-5.83.47-8.1.47-.12,0-.3-.02-.75-.06-.41-.04-.76.29-.76.7v7.6Z"/>
  </g>
  <g>
    <path class="cls-1" d="M89.16,30.35s6.21-5.88,13.51-5.88c3.66,0,5.09,1.36,5.02,4.31-.05,2.51-.06,6.91-.06,9.57,0,1.02.65.62.68,1.45.04.95.08,1.74.12,2.25.03.36-.26.66-.62.65-1-.02-3.59-.05-5.52-.05-2.95-.01-3.75.02-4.46.04-.29,0-.52-.23-.5-.51.04-.48-.06-1.58.11-2.84.11-.82.56.3.83-.9.37-1.69.24-5.51.29-8.17.06-3.46-4.14-2.74-9.48,1.84l.08-1.75Z"/>
    <path class="cls-1" d="M110.41,42.38c.92-8.83.35-22.56-.06-26.87-.06-.63-.28-.56-.39-.99-.06-.24-.05-.59-.05-1.39,0-1.48.53-1.65,1.82-1.65h6.27c1.57,0,2.84.02,2.84,1.59,0,2.26-.22,1.95-.23,2.38-.16,5.62-.26,18.23-.02,26.38.02.79-.6,1.44-1.39,1.44h-7.89c-.5,0-.94-.4-.89-.89Z"/>
    <path class="cls-1" d="M88.83,42.58l-4.32.03-.74.66h-1.45c-.39,0-.71-.32-.71-.71v-8.17c0-.36.29-.65.65-.65h1.1c.2,0,.38.09.5.24l.54.67h1.83c.81,0,1.47-.65,1.49-1.45l.41-17.52h8.01v19.6c0,4.04-3.27,7.31-7.31,7.31Z"/>
    <path class="cls-1" d="M106.59,12.32l-2.22.22c-7.09.37-12.59.5-17.03.36-.21,0-.41-.07-.58-.19l-.54-.38c-.25-.17-.47-.24-.69-.24h-3.92c-.32,0-.58.26-.58.58v8.5c0,1.28.17,1.82,1.65,1.82,2.91,0,1.4-.35,2.38-.44,4.32-.4,13.26-.98,22.1-.06.5.05.89-.39.89-.89v-7.89c0-.79-.65-1.42-1.44-1.39Z"/>
  </g>
  <g>
    <path class="cls-2" d="M177.65,28.09c-.71,2.65-1.53,5.05-2.45,7.21-.24.57-.08,1.22.42,1.59.68.51,1.65.25,2-.52,1.06-2.29,1.9-4.83,2.54-7.62.53-2.3.91-4.53,1.15-6.69l-2.72,1.62c-.24,1.48-.55,2.95-.94,4.41Z"/>
    <path class="cls-2" d="M180.32,18.93c-.67-.03-1.23.47-1.28,1.14-.06.69-.13,1.38-.22,2.06l2.64-1.67c0-.07.02-.15.02-.23.05-.68-.48-1.27-1.16-1.31Z"/>
    <path class="cls-1" d="M193.14,17.69c.4,4.32.98,15.99.06,24.83-.05.5.39.89.89.89h7.89c.79,0,1.42-.65,1.39-1.44-.24-8.15-.13-20.28.02-25.9.01-.43.23-.12.23-2.38,0-1.57-.8-1.59-2.37-1.59l-8.27,5.06c.07.11.13.25.15.53Z"/>
  </g>
</svg>