<svg width="25" height="25" viewBox="0 0 25 25" fill="none" xmlns="http://www.w3.org/2000/svg">
<path d="M19.2083 2C21.3024 2 23 3.69758 23 5.79167V19.2083C23 21.3024 21.3024 23 19.2083 23H5.79167C3.69758 23 2 21.3024 2 19.2083V5.79167C2 3.69758 3.69758 2 5.79167 2H19.2083ZM21.25 8.41667H3.75V19.2083C3.75 20.3359 4.66408 21.25 5.79167 21.25H19.2083C20.3359 21.25 21.25 20.3359 21.25 19.2083V8.41667ZM7.54167 15.4167C8.34709 15.4167 9 16.0695 9 16.875C9 17.6805 8.34709 18.3333 7.54167 18.3333C6.73625 18.3333 6.08333 17.6805 6.08333 16.875C6.08333 16.0695 6.73625 15.4167 7.54167 15.4167ZM12.5 15.4167C13.3055 15.4167 13.9583 16.0695 13.9583 16.875C13.9583 17.6805 13.3055 18.3333 12.5 18.3333C11.6945 18.3333 11.0417 17.6805 11.0417 16.875C11.0417 16.0695 11.6945 15.4167 12.5 15.4167ZM7.54167 10.75C8.34709 10.75 9 11.4029 9 12.2083C9 13.0138 8.34709 13.6667 7.54167 13.6667C6.73625 13.6667 6.08333 13.0138 6.08333 12.2083C6.08333 11.4029 6.73625 10.75 7.54167 10.75ZM12.5 10.75C13.3055 10.75 13.9583 11.4029 13.9583 12.2083C13.9583 13.0138 13.3055 13.6667 12.5 13.6667C11.6945 13.6667 11.0417 13.0138 11.0417 12.2083C11.0417 11.4029 11.6945 10.75 12.5 10.75ZM17.4583 10.75C18.2638 10.75 18.9167 11.4029 18.9167 12.2083C18.9167 13.0138 18.2638 13.6667 17.4583 13.6667C16.6529 13.6667 16 13.0138 16 12.2083C16 11.4029 16.6529 10.75 17.4583 10.75ZM19.2083 3.75H5.79167C4.66408 3.75 3.75 4.66408 3.75 5.79167V6.66667H21.25V5.79167C21.25 4.66408 20.3359 3.75 19.2083 3.75Z" fill="#212121"/>
</svg>
